<mxfile host="app.diagrams.net" modified="2021-12-06T21:00:04.066Z" agent="5.0 (Windows NT 10.0; Win64; x64) AppleWebKit/537.36 (KHTML, like Gecko) Chrome/96.0.4664.45 Safari/537.36" etag="1mMyNyt3PhHtyLb54Z7U" version="15.9.1" type="github">
  <diagram id="gLEBWME5qHSq3BZmw2-_" name="Page-1">
    <mxGraphModel dx="868" dy="482" grid="1" gridSize="10" guides="1" tooltips="1" connect="1" arrows="1" fold="1" page="1" pageScale="1" pageWidth="827" pageHeight="1169" math="0" shadow="0">
      <root>
        <mxCell id="0" />
        <mxCell id="1" parent="0" />
        <mxCell id="BDNs1b7ILqMROvqSfkJf-1" value="&lt;b&gt;INICIO&lt;/b&gt;" style="ellipse;whiteSpace=wrap;html=1;" vertex="1" parent="1">
          <mxGeometry x="40" y="40" width="160" height="80" as="geometry" />
        </mxCell>
        <mxCell id="BDNs1b7ILqMROvqSfkJf-3" value="&lt;div&gt;&lt;b style=&quot;font-size: 10px&quot;&gt;INFORME A DATA DE REALIZAÇÃO DO EVENTO&lt;/b&gt;&lt;/div&gt;" style="shape=display;whiteSpace=wrap;html=1;align=center;size=0.1875;" vertex="1" parent="1">
          <mxGeometry x="40" y="170" width="160" height="80" as="geometry" />
        </mxCell>
        <mxCell id="BDNs1b7ILqMROvqSfkJf-8" value="&lt;b&gt;DATA DO EVENTO&lt;/b&gt;" style="shape=manualInput;whiteSpace=wrap;html=1;" vertex="1" parent="1">
          <mxGeometry x="40" y="300" width="160" height="90" as="geometry" />
        </mxCell>
        <mxCell id="BDNs1b7ILqMROvqSfkJf-9" value="&lt;font style=&quot;font-size: 10px&quot;&gt;&lt;b&gt;A DATA DO EVENTO&lt;br&gt;É POSTERIOR A &lt;br&gt;DATA DE HOJE ?&lt;/b&gt;&lt;/font&gt;" style="strokeWidth=2;html=1;shape=mxgraph.flowchart.decision;whiteSpace=wrap;align=center;" vertex="1" parent="1">
          <mxGeometry x="40" y="440" width="160" height="120" as="geometry" />
        </mxCell>
        <mxCell id="BDNs1b7ILqMROvqSfkJf-13" value="" style="endArrow=open;endFill=1;endSize=12;html=1;rounded=0;" edge="1" parent="1">
          <mxGeometry width="160" relative="1" as="geometry">
            <mxPoint x="119.5" y="120" as="sourcePoint" />
            <mxPoint x="119.5" y="160" as="targetPoint" />
          </mxGeometry>
        </mxCell>
        <mxCell id="BDNs1b7ILqMROvqSfkJf-14" value="" style="endArrow=open;endFill=1;endSize=12;html=1;rounded=0;" edge="1" parent="1">
          <mxGeometry width="160" relative="1" as="geometry">
            <mxPoint x="119.5" y="560" as="sourcePoint" />
            <mxPoint x="119.5" y="600" as="targetPoint" />
          </mxGeometry>
        </mxCell>
        <mxCell id="BDNs1b7ILqMROvqSfkJf-15" value="" style="endArrow=open;endFill=1;endSize=12;html=1;rounded=0;" edge="1" parent="1">
          <mxGeometry width="160" relative="1" as="geometry">
            <mxPoint x="600" y="565" as="sourcePoint" />
            <mxPoint x="600" y="605" as="targetPoint" />
          </mxGeometry>
        </mxCell>
        <mxCell id="BDNs1b7ILqMROvqSfkJf-16" value="" style="endArrow=open;endFill=1;endSize=12;html=1;rounded=0;" edge="1" parent="1">
          <mxGeometry width="160" relative="1" as="geometry">
            <mxPoint x="350" y="70" as="sourcePoint" />
            <mxPoint x="350" y="110" as="targetPoint" />
          </mxGeometry>
        </mxCell>
        <mxCell id="BDNs1b7ILqMROvqSfkJf-17" value="" style="endArrow=open;endFill=1;endSize=12;html=1;rounded=0;" edge="1" parent="1">
          <mxGeometry width="160" relative="1" as="geometry">
            <mxPoint x="360" y="80" as="sourcePoint" />
            <mxPoint x="360" y="120" as="targetPoint" />
          </mxGeometry>
        </mxCell>
        <mxCell id="BDNs1b7ILqMROvqSfkJf-18" value="" style="endArrow=open;endFill=1;endSize=12;html=1;rounded=0;" edge="1" parent="1">
          <mxGeometry width="160" relative="1" as="geometry">
            <mxPoint x="119.5" y="250" as="sourcePoint" />
            <mxPoint x="119.5" y="290" as="targetPoint" />
          </mxGeometry>
        </mxCell>
        <mxCell id="BDNs1b7ILqMROvqSfkJf-20" value="&lt;font style=&quot;font-size: 10px&quot;&gt;&lt;b&gt;DATA DO EVENTO&lt;/b&gt;&lt;/font&gt;" style="shape=display;whiteSpace=wrap;html=1;align=center;" vertex="1" parent="1">
          <mxGeometry x="310" y="330" width="160" height="80" as="geometry" />
        </mxCell>
        <mxCell id="BDNs1b7ILqMROvqSfkJf-21" value="&lt;font style=&quot;font-size: 10px&quot;&gt;&lt;b&gt;DATA DO EVENTO&lt;/b&gt;&lt;/font&gt;" style="shape=display;whiteSpace=wrap;html=1;align=center;" vertex="1" parent="1">
          <mxGeometry x="40" y="610" width="160" height="80" as="geometry" />
        </mxCell>
        <mxCell id="BDNs1b7ILqMROvqSfkJf-22" value="" style="strokeWidth=2;html=1;shape=mxgraph.flowchart.decision;whiteSpace=wrap;" vertex="1" parent="1">
          <mxGeometry x="560" y="210" width="160" height="120" as="geometry" />
        </mxCell>
        <mxCell id="BDNs1b7ILqMROvqSfkJf-23" value="" style="strokeWidth=2;html=1;shape=mxgraph.flowchart.decision;whiteSpace=wrap;" vertex="1" parent="1">
          <mxGeometry x="480" y="360" width="160" height="120" as="geometry" />
        </mxCell>
        <mxCell id="BDNs1b7ILqMROvqSfkJf-24" value="" style="strokeWidth=2;html=1;shape=mxgraph.flowchart.decision;whiteSpace=wrap;" vertex="1" parent="1">
          <mxGeometry x="460" y="650" width="160" height="120" as="geometry" />
        </mxCell>
        <mxCell id="BDNs1b7ILqMROvqSfkJf-25" value="" style="endArrow=open;endFill=1;endSize=12;html=1;rounded=0;" edge="1" parent="1">
          <mxGeometry width="160" relative="1" as="geometry">
            <mxPoint x="370" y="90" as="sourcePoint" />
            <mxPoint x="370" y="130" as="targetPoint" />
          </mxGeometry>
        </mxCell>
        <mxCell id="BDNs1b7ILqMROvqSfkJf-26" value="" style="endArrow=open;endFill=1;endSize=12;html=1;rounded=0;" edge="1" parent="1">
          <mxGeometry width="160" relative="1" as="geometry">
            <mxPoint x="380" y="100" as="sourcePoint" />
            <mxPoint x="380" y="140" as="targetPoint" />
          </mxGeometry>
        </mxCell>
        <mxCell id="BDNs1b7ILqMROvqSfkJf-27" value="" style="endArrow=open;endFill=1;endSize=12;html=1;rounded=0;" edge="1" parent="1">
          <mxGeometry width="160" relative="1" as="geometry">
            <mxPoint x="119.5" y="390" as="sourcePoint" />
            <mxPoint x="119.5" y="430" as="targetPoint" />
          </mxGeometry>
        </mxCell>
        <mxCell id="BDNs1b7ILqMROvqSfkJf-28" value="" style="endArrow=open;endFill=1;endSize=12;html=1;rounded=0;" edge="1" parent="1">
          <mxGeometry width="160" relative="1" as="geometry">
            <mxPoint x="200" y="499.5" as="sourcePoint" />
            <mxPoint x="250" y="499.5" as="targetPoint" />
          </mxGeometry>
        </mxCell>
        <mxCell id="BDNs1b7ILqMROvqSfkJf-29" value="" style="shape=manualInput;whiteSpace=wrap;html=1;" vertex="1" parent="1">
          <mxGeometry x="350" y="190" width="160" height="90" as="geometry" />
        </mxCell>
        <mxCell id="BDNs1b7ILqMROvqSfkJf-30" value="" style="shape=manualInput;whiteSpace=wrap;html=1;" vertex="1" parent="1">
          <mxGeometry x="450" y="80" width="160" height="90" as="geometry" />
        </mxCell>
      </root>
    </mxGraphModel>
  </diagram>
</mxfile>
